<svg width="142" height="56" viewBox="0 0 142 56" fill="none" xmlns="http://www.w3.org/2000/svg">
  <path d="M41.81 39.6028H58.0123V34.9589H46.826V30.3184H56.0849V25.6745H46.826V21.034H58.0123V16.3901H41.81V39.6028Z"
        fill="#002F87"/>
  <path
    d="M86.1774 39.6028H102.383V34.9589H91.1933V30.3184H100.456V25.6745H91.1933V21.034H102.383V16.3901H86.1774V39.6028Z"
    fill="#002F87"/>
  <path
    d="M71.9024 27.416L64.3802 16.3901H60.3279V39.6028H64.9591V25.6745L71.9024 36.1199L78.8492 25.6745V39.6028H83.4769V16.3901H79.4281L71.9024 27.416Z"
    fill="#002F87"/>
  <path
    d="M125.539 21.034V16.3901H118.589L114.152 23.3526L109.715 16.3901H104.699V21.034H106.626L111.114 27.9965L106.626 34.9589H104.699V39.6028H109.715L114.152 32.6404L118.589 39.6028H125.539V34.9589H121.674L117.189 27.9965L121.674 21.034H125.539Z"
    fill="#002F87"/>
  <path
    d="M39.8792 24.5136C39.8792 19.8731 36.021 16.3901 32.9358 16.3901H16.3453V21.034H21.7461V34.9589H16.3453V39.6028H26.7621V32.6404H29.8473L33.7054 39.6028H39.4944V34.9589H36.794L35.088 31.8653C36.9949 31.0321 39.8826 28.7716 39.8826 24.5136H39.8792ZM31.3898 27.9965H26.7587V21.034H31.3898C32.9324 21.034 34.8632 22.195 34.8632 24.517C34.8632 26.8389 32.9358 27.9999 31.3898 27.9999V27.9965Z"
    fill="#002F87"/>
</svg>
