<svg width="1411" height="177" viewBox="0 0 1411 177" fill="none" xmlns="http://www.w3.org/2000/svg">
  <g clip-path="url(#clip0_22291_82917)">
    <path d="M159.984 146H261.794V116.797H191.498V87.5933H249.663V58.4067H191.498V29.2033H261.794V0H159.984V146Z" fill="#002F87"/>
    <path d="M438.672 146H540.482V116.797H470.186V87.5933H528.367V58.4067H470.186V29.2033H540.482V0H438.672V146Z" fill="#002F87"/>
    <path d="M349.017 69.3517L301.754 0H276.298V146H305.389V58.4067L349.017 124.093L392.645 58.4067V146H421.736V0H396.279L349.017 69.3517Z" fill="#002F87"/>
    <path d="M685.991 29.2033V0H642.33L614.451 43.7967L586.571 0H555.058V29.2033H567.188L595.367 73L567.188 116.797H555.058V146H586.571L614.451 102.203L642.33 146H685.991V116.797H661.713L633.535 73L661.713 29.2033H685.991Z" fill="#002F87"/>
    <path d="M147.861 51.0933C147.861 21.89 123.615 0 104.233 0H0V29.2033H33.9366V116.797H0V146H65.4503V102.203H84.8497L109.095 146H145.454V116.797H128.494L117.774 97.3222C129.772 92.0746 147.894 77.8478 147.894 51.0933H147.861ZM94.5245 73H65.4337V29.2033H94.5245C104.216 29.2033 116.347 36.5 116.347 51.11C116.347 65.72 104.233 73.0167 94.5245 73.0167V73Z" fill="#002F87"/>
  </g>
  <path d="M712.368 146V54.608H733.488V129.232H768.432V146H712.368ZM802.574 75.984V146H781.71V75.984H802.574ZM792.206 48.336C795.278 48.336 797.923 49.0187 800.142 50.384C802.361 51.7493 803.47 54.2667 803.47 57.936C803.47 61.6053 802.361 64.1227 800.142 65.488C797.923 66.8533 795.278 67.536 792.206 67.536C789.134 67.536 786.489 66.8533 784.27 65.488C782.137 64.1227 781.07 61.6053 781.07 57.936C781.07 54.2667 782.137 51.7493 784.27 50.384C786.489 49.0187 789.134 48.336 792.206 48.336ZM860.524 147.408C860.524 145.701 860.567 143.952 860.652 142.16C860.823 140.368 861.036 138.619 861.292 136.912H860.524C858.903 139.813 856.599 142.288 853.612 144.336C850.625 146.299 846.7 147.28 841.836 147.28C834.497 147.28 828.481 144.208 823.788 138.064C819.18 131.92 816.876 122.917 816.876 111.056C816.876 103.12 817.943 96.464 820.076 91.088C822.209 85.6267 825.196 81.5307 829.036 78.8C832.876 76.0693 837.313 74.704 842.348 74.704C847.212 74.704 851.137 75.6853 854.124 77.648C857.196 79.6107 859.628 82 861.42 84.816H861.932L863.596 75.984H881.388V176.72H860.524V147.408ZM849.9 131.536C852.887 131.536 855.233 130.896 856.94 129.616C858.732 128.251 860.012 126.245 860.78 123.6C861.633 120.869 862.06 117.499 862.06 113.488V111.184C862.06 104.528 861.164 99.4933 859.372 96.08C857.665 92.5813 854.423 90.832 849.644 90.832C845.804 90.832 842.903 92.5813 840.94 96.08C839.063 99.5787 838.124 104.656 838.124 111.312C838.124 118.224 839.063 123.344 840.94 126.672C842.903 129.915 845.889 131.536 849.9 131.536ZM963.335 75.984V146H947.591L944.903 137.04H943.751C942.3 139.429 940.466 141.392 938.247 142.928C936.114 144.379 933.724 145.445 931.079 146.128C928.519 146.896 925.831 147.28 923.015 147.28C918.407 147.28 914.268 146.384 910.599 144.592C907.015 142.8 904.199 140.027 902.151 136.272C900.103 132.517 899.079 127.611 899.079 121.552V75.984H919.943V116.432C919.943 121.296 920.668 125.008 922.119 127.568C923.655 130.043 926.13 131.28 929.543 131.28C932.956 131.28 935.602 130.427 937.479 128.72C939.356 126.928 940.679 124.325 941.447 120.912C942.215 117.499 942.599 113.36 942.599 108.496V75.984H963.335ZM1002.2 75.984V146H981.335V75.984H1002.2ZM991.831 48.336C994.903 48.336 997.548 49.0187 999.767 50.384C1001.99 51.7493 1003.1 54.2667 1003.1 57.936C1003.1 61.6053 1001.99 64.1227 999.767 65.488C997.548 66.8533 994.903 67.536 991.831 67.536C988.759 67.536 986.114 66.8533 983.895 65.488C981.762 64.1227 980.695 61.6053 980.695 57.936C980.695 54.2667 981.762 51.7493 983.895 50.384C986.114 49.0187 988.759 48.336 991.831 48.336ZM1041.46 147.28C1034.12 147.28 1028.11 144.208 1023.41 138.064C1018.81 131.92 1016.5 122.917 1016.5 111.056C1016.5 99.1093 1018.85 90.064 1023.54 83.92C1028.32 77.776 1034.51 74.704 1042.1 74.704C1045.26 74.704 1047.99 75.1733 1050.29 76.112C1052.68 76.9653 1054.73 78.16 1056.44 79.696C1058.14 81.232 1059.59 82.9813 1060.79 84.944H1061.3C1061.05 83.4933 1060.79 81.4453 1060.53 78.8C1060.28 76.0693 1060.15 73.296 1060.15 70.48V48.72H1081.01V146H1065.14L1060.92 136.912H1060.15C1059.04 138.789 1057.63 140.539 1055.93 142.16C1054.22 143.696 1052.17 144.933 1049.78 145.872C1047.48 146.811 1044.7 147.28 1041.46 147.28ZM1049.27 131.28C1053.79 131.28 1056.99 129.787 1058.87 126.8C1060.75 123.813 1061.69 119.291 1061.69 113.232V111.184C1061.69 104.613 1060.79 99.6213 1059 96.208C1057.21 92.7093 1053.92 90.96 1049.14 90.96C1045.64 90.96 1042.83 92.7093 1040.69 96.208C1038.65 99.6213 1037.62 104.656 1037.62 111.312C1037.62 117.968 1038.65 122.96 1040.69 126.288C1042.83 129.616 1045.69 131.28 1049.27 131.28ZM1129.3 74.576C1138.17 74.576 1145.04 76.6667 1149.9 80.848C1154.77 84.944 1157.2 91.1307 1157.2 99.408V146H1142.74L1138.64 136.528H1138.13C1136.17 139.003 1134.16 141.051 1132.11 142.672C1130.15 144.293 1127.85 145.445 1125.2 146.128C1122.64 146.896 1119.48 147.28 1115.73 147.28C1111.8 147.28 1108.26 146.512 1105.1 144.976C1101.95 143.355 1099.43 140.88 1097.55 137.552C1095.76 134.224 1094.86 130.043 1094.86 125.008C1094.86 117.584 1097.38 112.08 1102.42 108.496C1107.45 104.912 1114.92 102.949 1124.82 102.608L1136.34 102.224V99.536C1136.34 95.952 1135.48 93.3493 1133.78 91.728C1132.07 90.0213 1129.77 89.168 1126.86 89.168C1123.88 89.168 1120.76 89.68 1117.52 90.704C1114.28 91.6427 1111.03 92.88 1107.79 94.416L1101.39 80.848C1105.23 78.8853 1109.5 77.3493 1114.19 76.24C1118.89 75.1307 1123.92 74.576 1129.3 74.576ZM1130.06 114C1124.94 114.171 1121.32 115.237 1119.18 117.2C1117.14 119.077 1116.11 121.637 1116.11 124.88C1116.11 127.696 1116.84 129.701 1118.29 130.896C1119.82 132.091 1121.74 132.688 1124.05 132.688C1127.46 132.688 1130.36 131.536 1132.75 129.232C1135.23 126.928 1136.46 123.685 1136.46 119.504V113.744L1130.06 114ZM1205.56 131.28C1207.61 131.28 1209.53 131.067 1211.32 130.64C1213.2 130.213 1215.07 129.701 1216.95 129.104V143.952C1214.73 144.805 1212.17 145.573 1209.27 146.256C1206.37 146.939 1202.96 147.28 1199.03 147.28C1194.76 147.28 1191.01 146.597 1187.77 145.232C1184.52 143.867 1181.96 141.477 1180.09 138.064C1178.21 134.651 1177.27 129.915 1177.27 123.856V90.96H1168.82V82.64L1179.06 75.984L1184.69 61.264H1198.13V75.984H1216.18V90.96H1198.13V123.6C1198.13 126.16 1198.77 128.08 1200.05 129.36C1201.42 130.64 1203.25 131.28 1205.56 131.28ZM1250.7 75.984V146H1229.84V75.984H1250.7ZM1240.33 48.336C1243.4 48.336 1246.05 49.0187 1248.27 50.384C1250.49 51.7493 1251.6 54.2667 1251.6 57.936C1251.6 61.6053 1250.49 64.1227 1248.27 65.488C1246.05 66.8533 1243.4 67.536 1240.33 67.536C1237.26 67.536 1234.61 66.8533 1232.4 65.488C1230.26 64.1227 1229.2 61.6053 1229.2 57.936C1229.2 54.2667 1230.26 51.7493 1232.4 50.384C1234.61 49.0187 1237.26 48.336 1240.33 48.336ZM1331.69 110.8C1331.69 116.688 1330.92 121.893 1329.39 126.416C1327.85 130.853 1325.63 134.651 1322.73 137.808C1319.83 140.965 1316.33 143.355 1312.23 144.976C1308.14 146.512 1303.49 147.28 1298.28 147.28C1293.42 147.28 1288.94 146.512 1284.84 144.976C1280.75 143.355 1277.2 141.008 1274.22 137.936C1271.32 134.779 1269.05 130.939 1267.43 126.416C1265.81 121.808 1265 116.603 1265 110.8C1265 103.035 1266.32 96.5067 1268.97 91.216C1271.7 85.84 1275.58 81.744 1280.62 78.928C1285.65 76.112 1291.67 74.704 1298.67 74.704C1305.07 74.704 1310.74 76.112 1315.69 78.928C1320.72 81.744 1324.65 85.84 1327.47 91.216C1330.28 96.5067 1331.69 103.035 1331.69 110.8ZM1286.25 110.8C1286.25 115.323 1286.68 119.12 1287.53 122.192C1288.38 125.264 1289.71 127.568 1291.5 129.104C1293.29 130.64 1295.64 131.408 1298.54 131.408C1301.44 131.408 1303.74 130.64 1305.45 129.104C1307.24 127.568 1308.52 125.264 1309.29 122.192C1310.14 119.12 1310.57 115.365 1310.57 110.928C1310.57 106.405 1310.14 102.651 1309.29 99.664C1308.44 96.592 1307.11 94.3307 1305.32 92.88C1303.61 91.344 1301.31 90.576 1298.41 90.576C1294.06 90.576 1290.94 92.2827 1289.07 95.696C1287.19 99.024 1286.25 104.059 1286.25 110.8ZM1386.53 74.704C1393.78 74.704 1399.59 76.752 1403.94 80.848C1408.38 84.8587 1410.59 91.344 1410.59 100.304V146H1389.73V105.552C1389.73 100.603 1388.96 96.8907 1387.43 94.416C1385.89 91.856 1383.46 90.576 1380.13 90.576C1375.01 90.576 1371.55 92.5387 1369.76 96.464C1367.97 100.389 1367.07 106.064 1367.07 113.488V146H1346.21V75.984H1362.08L1364.9 84.944H1365.79C1367.33 82.64 1369.12 80.72 1371.17 79.184C1373.22 77.648 1375.56 76.5387 1378.21 75.856C1380.86 75.088 1383.63 74.704 1386.53 74.704Z" fill="#002F87"/>
  <defs>
    <clipPath id="clip0_22291_82917">
      <rect width="686" height="146" fill="white"/>
    </clipPath>
  </defs>
</svg>
